<?xml version="1.0" encoding="UTF-8" standalone="no"?><!-- Generator: Gravit.io --><svg xmlns="http://www.w3.org/2000/svg" xmlns:xlink="http://www.w3.org/1999/xlink" style="isolation:isolate" viewBox="0 0 900 230" width="900pt" height="230pt"><defs><clipPath id="_clipPath_THqlt2Db3DMKrwZdfHCEmhd4XRbVnquu"><rect width="900" height="230"/></clipPath></defs><g clip-path="url(#_clipPath_THqlt2Db3DMKrwZdfHCEmhd4XRbVnquu)"><g><path d=" M 20.373 81.191 Q 42.509 71.478 48.963 69.35 L 9.681 -2.819 L -1.471 -0.49 L -1.103 47.425 L 20.373 81.191 Z " fill="rgb(0,0,0)"/><path d=" M 33.533 99.952 Q 46.615 93.924 50.078 93.026 C 53.54 92.129 60.338 89.179 65.212 88.024 L 85.417 101.32 L 102.475 92.214 L 126.715 68.872 L 142.799 52.218 L 164.126 75.898 L 147.734 90.364 L 125.643 111.527 L 112.08 128.957 L 72.814 138.601 L 38.439 117.384 L 33.533 99.952 Z " fill="rgb(0,0,0)"/><path d=" M 254.179 122.617 L 277.98 96.534 L 337.649 102.616 L 388.292 59.159 L 411.523 79.625 L 378.734 107.24 L 355.353 127.129 L 296.144 174.918 L 254.179 122.617 Z " fill="rgb(0,0,0)"/><path d=" M 488.136 96.798 Q 508.446 73.12 510.306 72.215 L 457.289 9.818 L 403.174 43.655 L 430.663 67.63 L 447.575 59.215 L 488.136 96.798 Z " fill="rgb(0,0,0)"/><path d=" M 502.621 113.826 Q 513.636 100.401 514.497 99.541 Q 515.357 98.68 524.221 89.128 L 578.945 139.067 L 587.169 138.717 L 610.5 116.324 L 623.691 100.835 L 641.579 127.904 L 626.421 143.523 L 602.831 164.629 L 556.992 193.661 L 502.621 113.826 Z " fill="rgb(0,0,0)"/><path d=" M 758.272 140.501 L 787.017 121.918 L 907.505 151.275 L 910.119 210.508 L 804.72 224.735 L 758.272 140.501 Z " fill="rgb(0,0,0)"/><path d=" M 243.315 101.927 L 266.519 76.888 L 237.743 13.11 L 192.187 13.256 L 157.063 36.751 L 181.316 61.79 L 209.23 49.096 L 243.315 101.927 Z " fill="rgb(0,0,0)"/><path d=" M 747.117 121.896 L 777.208 102.764 L 717.696 27.401 L 659.219 61.113 L 686.221 86.037 L 704.754 85.638 L 747.117 121.896 Z " fill="rgb(0,0,0)"/><path d=" M 644.498 75.202 L 655.573 85.287 L 672.273 100.219 L 656.898 110.766 L 637.78 83.739 L 644.498 75.202 Z " fill="rgb(0,0,0)"/></g></g></svg>